<svg width="192" height="47" xmlns="http://www.w3.org/2000/svg"><path d="M26.752 19.718a9.414 9.414 0 0 1 4.392-.699c1.268.082 2.52.33 3.725.739-3.227 3.833-5.956 5.137-7.786 5.137-2.935 0-3.585-3.37-.33-5.177zM14.21 36.216c.376-7.47 1.547-16.39 4.997-22.454l.27-.46c2.636-4.608 6.482-7.548 10.566-8.07 6.665-.759 9.88 4.22 7.44 10.021-6.715-3.165-18.045-.866-17.894 7.286l.01.273c.107 6.753 7.27 8.944 12.682 5.771l.218-.131a23.452 23.452 0 0 0 6.848-6.177c4.485 3.806 3.866 13.882-5.454 18.031a15.658 15.658 0 0 1-5.84 1.103c-4.955 0-9.938-2.146-13.843-5.193zm-4.73-4.43l-.253-.27-.506-.59-.475-.578-.255-.323a.077.077 0 0 1-.01-.017A31.292 31.292 0 0 1 4.416 24.5L0 26.997a38.9 38.9 0 0 0 4.827 7.184 40.765 40.765 0 0 0 4.205 4.347c-.094 2.181-.168 4.58-.215 6.856l5.034.107c.027-1.095.055-2.185.09-3.264 14.314 9.377 33.51 2.64 33.09-14.823a12.072 12.072 0 0 0-1.873-6.046 14.325 14.325 0 0 0-3.239-3.576c.354-.822.643-1.672.864-2.54C45.01 5.926 39.02 0 31.533 0 22.272 0 10.729 9.014 9.479 31.787zm123.81 8.731a2.892 2.892 0 0 1-1.463-.754c-3.55-3.37-.97-10.46 1.993-13.61 7.21-7.25 11.071 1.3 7.517 8.275-1.752 3.406-4.422 6.157-7.268 6.157-.26 0-.52-.022-.779-.068zM79.306 30.433h-.015c.486-1.458 2.336-4.311 4.068-5.591 5.271-3.873 8.736-.992 7.396 1.885-.883 1.88-3.826 3.761-9.67 3.761-.564 0-1.167 0-1.779-.055zm27.31-2.497v-.016c6.12-9.816 13.82-4.098 9.276 5.927-2.425 4.41-5.06 6.196-7.179 6.196-3.737 0-5.816-5.595-2.098-12.107zm-52.35 2.296h-.015c.487-1.463 2.336-4.316 4.068-5.596 5.268-3.872 8.736-.992 7.397 1.889-.864 1.835-3.697 3.674-9.285 3.755l-.385.003c-.565 0-1.168 0-1.78-.052zm51.485-25.796l-.164.66-6.505 26.641a21.713 21.713 0 0 1-2.08 2.93l-.417.48c-.214.225-1.757 1.84-2.91 2.79-1.946 1.58-4.282 2.916-6.8 3.063a9.6 9.6 0 0 1-4.034-.57 6.922 6.922 0 0 1-1.499-.813 5.864 5.864 0 0 1-1.652-1.829 5.955 5.955 0 0 1-.765-2.356c3.09.083 6.229.158 9.214-.629 4.64-1.209 9.495-5.555 7.95-10.906-.923-3.193-3.82-5.354-6.969-5.927-6.715-1.186-13.59 5.552-15.096 13.072a3.953 3.953 0 0 1-.573 1.418 21.95 21.95 0 0 1-1.483 1.976l-.43.493c-.214.226-1.753 1.84-2.906 2.79-1.947 1.581-4.282 2.917-6.801 3.063a9.6 9.6 0 0 1-4.033-.569 6.929 6.929 0 0 1-1.499-.814 5.864 5.864 0 0 1-1.652-1.828 5.957 5.957 0 0 1-.766-2.356l1.161.029c2.713.059 5.441.03 8.054-.658 4.644-1.225 9.499-5.572 7.953-10.918-.922-3.193-3.819-5.354-6.968-5.927-10.6-1.901-21.586 16.011-11.29 25.483 3.504 2.834 7.958 3.3 12.069 2.32a18.177 18.177 0 0 0 6.442-3.066l.732-.568c.816-.646 2.535-2.015 2.908-2.345a12.774 12.774 0 0 0 2.916 3.908c3.504 2.83 7.957 3.3 12.068 2.316a18.041 18.041 0 0 0 6.443-3.065l.79-.612c.787-.615 2.33-1.83 2.998-2.377.042.151.096.3.16.443 5.087 10.436 18.935 6.12 25.444-.115 4.862 12.084 20.243 3.766 26.082-3.525l-.225 1.951c-.36 3.175-.637 5.932-.822 7.687h5.35l.057-.993c.326-5.238 1.091-12.074 3.633-16.291.988-1.636 2.277-3.161 4.157-3.774.394-.15.823-.173 1.23-.067.295.128.552.332.744.592.193.26.315.567.354.89.18 1.008 0 2.11-.124 3.118-.086.84-.178 1.682-.277 2.525-.159 1.331-.342 2.66-.529 3.987-.452 3.126-.876 6.251-1.219 9.393l-.015.183a6.585 6.585 0 0 1-.05.437h5.332c.577-3.485.962-6.998 1.713-10.452l.226-1.022c.73-3.209 1.752-6.626 4.384-8.688l.288-.216c.62-.5 1.385-.777 2.176-.79.208.005.413.046.607.122 1.77.697.937 3.033.674 4.37l-.024.127a39.914 39.914 0 0 1-.303 1.58 70.032 70.032 0 0 0-1.11 7.058 19.32 19.32 0 0 0-.082 2.916c.058.925.34 1.82.821 2.607a5.558 5.558 0 0 0 1.938 1.902 5.456 5.456 0 0 0 5.226.155c2.308-1.21 4.438-3.7 5.917-6.647l-3.574-2.766-.535.997c-.763 1.41-1.488 2.661-2.229 3.397-.91.905-2.382.395-2.682-.905-.479-2.051 1.102-8.097 1.721-11.219 1.588-7.994-8.05-11.811-13.29-5.726-2.052-4.94-8.62-4.5-12.15-1.454l.182-1.742-5.337-.747-.489 4.149c-.643 5.19-1.334 6.896-7.133 12.708 5.921-14.921-7.397-23.192-16.394-12.989a18.44 18.44 0 0 0-2.97 4.718l-.668 1.605c-1.67 3.961-3.394 7.136-7.608 9.444 4.71-7.148 5.45-15.043-.428-19.703h-.036c-3.075-2.193-7.007-1.465-10.23.024l3.067-13.119.094-.395-5.45-1.04z" fill="#000" fill-rule="evenodd"/></svg>