<svg width="2752" height="2752" xmlns="http://www.w3.org/2000/svg"><g fill="none" fill-rule="evenodd"><path fill="#FFF" d="M0 0H2752V2752H0z"/><path d="M713.862 1709.858h1.276c-1.276 0-1.276 0-1.276 1.284v-1.284zm34.267-72.187c-71.784 237.3-115.596 726.522 185.094 701.534 300.691-24.987 171.1-141.119 470.106-141.119 241.088 0 196.73 54.818 336.07 141.12 164.7 0 191.155-60.666 240.77-176.018 49.617-115.352-54.709-357.262-160.879-407.226-78.58-36.98-164.41-91.813-154.481-195.273 14.683-153.022 83.886-191.573 90.237-197.926 54.222-90.058 75.724-199.983-65.538-303.97-114.048-79.618-397.277-133.355-649.618 103.987-166.76 156.847-219.978 237.59-291.761 474.89z" fill="#000"/><path d="M1299.367 504.757c-84.792 128.575-105.558 361.278-44.156 361.278 61.4 0 209.739-58.465 293.889-175.998 79.696-109.525 122.25-312.228 103.066-379.135-7.675-26.766-15.465-43.843-23.37-51.231-10.716 3.073-229.84 70.521-329.429 245.086z" fill="#000"/></g></svg>