<svg height="120" viewBox="0 0 88 120" width="88" xmlns="http://www.w3.org/2000/svg"><g fill="none" fill-rule="evenodd"><rect fill="#fff" height="120" rx="4" width="88"/><circle cx="18" cy="18" fill="#e0e0e0" r="2"/><circle cx="66" cy="18" fill="#e0e0e0" r="2"/><circle cx="18" cy="26" fill="#e0e0e0" r="2"/><circle cx="18" cy="34" fill="#e0e0e0" r="2"/><path class='hotkey' d="m0 6.64996893 6.64996893-6.64996893 6.64996897 6.64996893h-3.30913756v4.32730377h-6.6817405v-4.32730377zm3.29709695-1.25284091h1.65056818v4.3273038h3.40452992v-4.3273038h1.65056815l-3.35279427-3.35287198z" fill="#aaa" fill-rule="nonzero" transform="translate(29.0819 101.0227)"/><path class='hotkey' d="m11.999925 6.74979985.000075-6.74977735-1.4999672-.0000225-.000075 5.24983266-7.62868311.000075 2.9622102-2.9622552-1.0606193-1.0606343-4.77286559 4.77287309 4.77286559 4.77289555 1.0606193-1.06070175-2.9622477-2.9622102z" fill="#aaa" fill-rule="nonzero" transform="translate(46 101)"/><g fill="#e0e0e0"><path d="m56 20 8 16h-16z"/><path d="m68 28 4 8h-8z"/><rect height="4" rx="2" width="56" x="16" y="40"/><rect height="4" rx="2" width="56" x="16" y="56"/><rect height="4" rx="2" width="24" x="16" y="64"/><rect height="4" rx="2" width="56" x="16" y="48"/><rect height="4" rx="2" width="24" x="48" y="64"/><rect height="4" rx="2" width="56" x="16" y="72"/><rect height="4" rx="2" width="56" x="16" y="80"/><rect height="4" rx="2" width="56" x="16" y="88"/><rect height="4" rx="2" width="16" x="24" y="16"/><rect height="4" rx="2" width="16" x="24" y="24"/><rect height="4" rx="2" width="16" x="24" y="32"/></g></g></svg>