<svg height="1400" viewBox="0 0 4240 1400" width="4240" xmlns="http://www.w3.org/2000/svg"><g fill="#fff" fill-rule="evenodd"><path d="m701.914014 0c304.745276 0 564.001356 194.786298 660.085986 466.662169l-399.246077-.003479c-64.079303-71.599462-157.198179-116.65869-260.839909-116.65869-193.275918 0-349.957007 156.700338-349.957007 350s156.681089 350 349.957007 350c103.641279 0 196.759795-45.05884 260.839072-116.657755l399.246914-.003478c-96.08522 271.875383-355.34106 466.661233-660.085986 466.661233-386.551836 0-699.914014-313.40068-699.914014-700 0-386.599325 313.362178-700 699.914014-700zm347.087006 747.001721 350.99898-.001721c-2.08574 31.622025-6.28338 62.668391-12.45349 93h-364.54651c12.75877-29.139352 21.64246-60.355011 26.00102-92.998279zm338.54573-187.001721c6.16995 30.331624 10.36751 61.377988 12.45325 93l-350.99948-.001721c-4.35856-32.643236-13.24207-63.858886-26.00052-92.998279z"/><g fill-rule="nonzero"><path d="m2052.664 856.696c-4.096 3.413333-11.69067 8.021333-22.784 13.824s-24.66133 10.922667-40.704 15.36-33.792 6.485333-53.248 6.144c-29.696-.682667-56.23467-6.058667-79.616-16.128s-43.17867-23.808-59.392-41.216-28.58667-37.376-37.12-59.904-12.8-46.592-12.8-72.192c0-28.672 4.352-54.954667 13.056-78.848s21.16267-44.544 37.376-61.952 35.584-30.890667 58.112-40.448 47.44533-14.336 74.752-14.336c25.25867 0 47.616 3.413333 67.072 10.24s35.328 14.165333 47.616 22.016l-29.184 70.144c-8.53333-6.485333-19.88267-13.226667-34.048-20.224s-30.464-10.496-48.896-10.496c-14.336 0-28.07467 2.986667-41.216 8.96s-24.74667 14.421333-34.816 25.344-18.00533 23.637333-23.808 38.144-8.704 30.293333-8.704 47.36c0 18.090667 2.64533 34.645333 7.936 49.664s12.88533 27.904 22.784 38.656 21.76 19.029333 35.584 24.832 29.44 8.704 46.848 8.704c20.13867 0 37.376-3.242667 51.712-9.728s25.25867-13.312 32.768-20.48z"/><path d="m2273.08 511.096c23.552 0 44.544 2.986667 62.976 8.96s33.87733 14.506667 46.336 25.6 21.93067 24.405333 28.416 39.936 9.728 33.024 9.728 52.48c0 15.36-2.304 30.72-6.912 46.08s-12.11733 29.354667-22.528 41.984-24.14933 22.784-41.216 30.464-38.22933 11.52-63.488 11.52h-53.248v119.808h-74.24v-376.832zm12.8 185.344c11.264 0 20.65067-1.877333 28.16-5.632s13.39733-8.533333 17.664-14.336 7.33867-11.861333 9.216-18.176 2.816-12.202667 2.816-17.664c0-4.096-.59733-9.301333-1.792-15.616s-3.66933-12.714667-7.424-19.2-9.472-11.946667-17.152-16.384-18.00533-6.656-30.976-6.656h-53.248v113.664zm69.632 46.08 93.184 145.408h-86.528l-95.232-143.36z"/><path d="m2609.208 770.68-138.752-259.584h91.648l97.28 195.584-22.016 1.536 95.744-197.12h91.648l-141.312 259.584v117.248h-74.24z"/><path d="m3027.256 511.096c31.06133 0 57.344 5.205333 78.848 15.616s37.888 25.088 49.152 44.032 16.896 41.386667 16.896 67.328c0 15.36-2.304 30.805333-6.912 46.336s-11.94667 29.610667-22.016 42.24-23.552 22.784-40.448 30.464-37.632 11.52-62.208 11.52h-53.248v119.296h-74.24v-376.832zm12.8 185.344c11.264 0 20.65067-1.962667 28.16-5.888s13.39733-8.874667 17.664-14.848 7.33867-12.202667 9.216-18.688 2.816-12.117333 2.816-16.896c0-3.754667-.59733-8.789333-1.792-15.104s-3.66933-12.714667-7.424-19.2-9.472-11.946667-17.152-16.384-18.00533-6.656-30.976-6.656h-53.248v113.664z"/><path d="m3245.112 511.096h253.952v71.68h-91.648v305.152h-74.24v-305.152h-88.064z"/><path d="m3602.744 511.096h257.024v71.68h-182.784v80.384h161.792v71.68h-161.792v81.408h189.952v71.68h-264.192z"/><path d="m3975.736 511.096h257.024v71.68h-182.784v80.384h161.792v71.68h-161.792v81.408h189.952v71.68h-264.192z"/></g></g></svg>